<svg xmlns="http://www.w3.org/2000/svg" viewBox="0 0 500 500">
  <!-- Background Circle (Optional, remove for full transparency) -->
  <!-- <circle cx="250" cy="250" r="240" fill="none" stroke="white" stroke-width="20"/> -->

  <!-- Gear Icon (representing Tools/Engineering) -->
  <path fill="white" d="M434.67 285.65l-29.65-4.85c-2.95-15.3-8.2-29.85-15.4-43.3l19.25-23.1c5.3-6.35 4.6-15.65-1.3-21.55l-33.15-33.15c-5.9-5.9-15.2-6.6-21.55-1.3l-23.1 19.25c-13.45-7.2-28-12.45-43.3-15.4l-4.85-29.65c-1.4-8.35-8.65-14.6-17.1-14.6h-46.9c-8.45 0-15.7 6.25-17.1 14.6l-4.85 29.65c-15.3 2.95-29.85 8.2-43.3 15.4l-23.1-19.25c-6.35-5.3-15.65-4.6-21.55 1.3l-33.15 33.15c-5.9 5.9-6.6 15.2-1.3 21.55l19.25 23.1c-7.2 13.45-12.45 28-15.4 43.3l-29.65 4.85c-8.35 1.4-14.6 8.65-14.6 17.1v46.9c0 8.45 6.25 15.7 14.6 17.1l29.65 4.85c2.95 15.3 8.2 29.85 15.4 43.3l-19.25 23.1c-5.3 6.35-4.6 15.65 1.3 21.55l33.15 33.15c5.9 5.9 15.2 6.6 21.55 1.3l23.1-19.25c13.45 7.2 28 12.45 43.3 15.4l4.85 29.65c1.4 8.35 8.65 14.6 17.1 14.6h46.9c8.45 0 15.7-6.25 17.1-14.6l4.85-29.65c15.3-2.95 29.85-8.2 43.3-15.4l23.1 19.25c6.35 5.3 15.65 4.6 21.55-1.3l33.15-33.15c5.9-5.9 6.6-15.2 1.3-21.55l-19.25-23.1c7.2-13.45 12.45-28 15.4-43.3l29.65-4.85c8.35-1.4 14.6-8.65 14.6-17.1v-46.9c0-8.5-6.25-15.75-14.6-17.15zM250 328.1c-43.15 0-78.1-34.95-78.1-78.1s34.95-78.1 78.1-78.1 78.1 34.95 78.1 78.1-34.95 78.1-78.1 78.1z"/>

  <!-- Code Brackets (representing Development) -->
  <path fill="white" d="M160 200l-50 50 50 50-20 20-70-70 70-70z"/>
  <path fill="white" d="M340 200l50 50-50 50 20 20 70-70-70-70z"/>

  <!-- Central Element: Project/Checklist -->
  <rect x="220" y="210" width="60" height="80" rx="5" fill="white"/>
  <path fill="#009688" d="M235 230h30v10h-30zM235 250h30v10h-30zM235 270h20v10h-20z"/>
</svg>